<?xml version="1.0" encoding="UTF-8" standalone="no"?>
<svg
   version="1.1"
   width="612pt"
   height="792pt"
   id="svg37"
   viewBox="0 0 612 792"
   sodipodi:docname="Logo cdr file.cdr"
   xmlns:inkscape="http://www.inkscape.org/namespaces/inkscape"
   xmlns:sodipodi="http://sodipodi.sourceforge.net/DTD/sodipodi-0.dtd"
   xmlns="http://www.w3.org/2000/svg"
   xmlns:svg="http://www.w3.org/2000/svg">
  <defs
     id="defs41" />
  <sodipodi:namedview
     id="namedview39"
     pagecolor="#ffffff"
     bordercolor="#000000"
     borderopacity="0.25"
     inkscape:showpageshadow="2"
     inkscape:pageopacity="0.0"
     inkscape:pagecheckerboard="0"
     inkscape:deskcolor="#d1d1d1"
     inkscape:document-units="pt" />
  <g
     id="Layer1000">
    <path
       d="m 207.3064,188.6159 h 60.573 v 35.0762 h -60.573 z"
       style="fill:#ffffff;fill-rule:evenodd"
       id="path2" />
    <g
       id="Layer1001">
      <g
         id="Layer1002">
        <path
           d="m 211.6932,218.6392 c 0.5086,-0.2674 1.0002,-0.401 1.4751,-0.401 0.225,0 0.3966,0.0468 0.5165,0.1406 0.1199,0.0947 0.1794,0.2194 0.1794,0.3751 0,0.1585 -0.0288,0.2923 -0.0852,0.4 -0.0575,0.1078 -0.1478,0.2094 -0.2707,0.3062 -0.1953,0.1426 -0.4411,0.2713 -0.7375,0.387 -0.2964,0.1147 -0.6018,0.1955 -0.918,0.2404 l 2.1591,1.7416 c 0.1437,0 0.2151,0.0438 0.2151,0.1317 0,0.1317 -0.0714,0.1974 -0.2151,0.1974 -0.0812,0 -0.1388,-0.0398 -0.1725,-0.1196 l -2.1462,-1.7536 v 1.58 c 0.0317,0.0339 0.0475,0.0718 0.0475,0.1138 0,0.0488 -0.0218,0.0847 -0.0673,0.1086 -0.0447,0.024 -0.0932,0.0359 -0.1468,0.0359 -0.1149,0 -0.1724,-0.0478 -0.1724,-0.1445 0,-0.016 0.002,-0.0289 0.007,-0.04 0.004,-0.01 0.0139,-0.0249 0.0289,-0.0428 0.0149,-0.018 0.0267,-0.032 0.0356,-0.043 v -2.771 c -0.004,0 -0.0138,0.004 -0.0288,0.012 -0.0158,0.008 -0.0257,0.012 -0.0306,0.012 -0.0912,0 -0.1369,-0.0459 -0.1369,-0.1377 0,-0.0847 0.0654,-0.1566 0.1963,-0.2154 v -0.2584 c -0.0228,-0.0529 -0.0346,-0.0978 -0.0346,-0.1366 0,-0.037 0.0158,-0.0679 0.0475,-0.0938 0.0318,-0.0249 0.0734,-0.038 0.1249,-0.038 0.118,0 0.1774,0.0441 0.1774,0.1318 0,0.0229 -0.0158,0.0649 -0.0475,0.1247 z m 1.4761,-0.1317 c -0.4907,0 -0.9834,0.1495 -1.4761,0.4489 v 0.8858 c 0.1398,-0.013 0.3133,-0.045 0.5214,-0.0968 0.2081,-0.0519 0.4194,-0.1228 0.6315,-0.2136 0.2122,-0.0907 0.3906,-0.1994 0.5344,-0.327 0.1436,-0.1277 0.2161,-0.2664 0.2161,-0.4171 0,-0.0768 -0.0317,-0.1426 -0.0962,-0.1975 -0.0634,-0.0547 -0.1745,-0.0827 -0.3311,-0.0827 z m 2.0391,3.2249 c 0,0.0938 -0.0218,0.1795 -0.0664,0.2583 -0.0436,0.0788 -0.1249,0.1187 -0.243,0.1187 -0.0643,0 -0.1149,-0.0309 -0.1525,-0.0918 -0.0368,-0.0618 -0.0556,-0.1407 -0.0556,-0.2374 0,-0.0947 0.0307,-0.1795 0.0912,-0.2563 0.0615,-0.0768 0.1338,-0.1146 0.2182,-0.1146 0.1387,0 0.2081,0.1076 0.2081,0.3231 z m 1.142,0.1206 c 0.0317,0.033 0.0476,0.0749 0.0476,0.1258 0,0.0967 -0.0595,0.1445 -0.1775,0.1445 -0.0505,0 -0.0981,-0.0119 -0.1427,-0.0359 -0.0436,-0.0239 -0.0664,-0.0598 -0.0664,-0.1086 0,-0.042 0.0238,-0.0879 0.0713,-0.1377 v -3.3865 c -0.0227,-0.0249 -0.0346,-0.0569 -0.0346,-0.0967 0,-0.0877 0.0525,-0.1318 0.1585,-0.1318 0.0447,0 0.0833,0.0101 0.1171,0.031 0.0336,0.021 0.0496,0.0469 0.0496,0.0768 0,0.0479 -0.007,0.0798 -0.0229,0.0958 v 1.0293 l 1.4027,-1.1011 c 0.0536,-0.0798 0.1011,-0.1197 0.1438,-0.1197 0.0536,0 0.0991,0.0169 0.1378,0.0518 0.0386,0.0349 0.0585,0.0808 0.0585,0.1397 0,0.024 -0.0159,0.0508 -0.0476,0.0807 -0.0327,0.0299 -0.0684,0.045 -0.1081,0.045 l -1.4988,1.1381 2.2304,2.1705 c 0.0446,0 0.0823,0.0129 0.1121,0.0369 0.0287,0.0239 0.0436,0.0459 0.0436,0.0658 0,0.042 -0.0199,0.0819 -0.0595,0.1207 -0.0396,0.039 -0.0932,0.0589 -0.1606,0.0589 -0.0456,0 -0.0833,-0.0109 -0.111,-0.0339 -0.0289,-0.022 -0.0436,-0.0469 -0.0436,-0.0738 l -2.0997,-2.0708 z m 3.426,-0.1206 c 0,0.0938 -0.0218,0.1795 -0.0664,0.2583 -0.0436,0.0788 -0.1249,0.1187 -0.2429,0.1187 -0.0644,0 -0.115,-0.0309 -0.1526,-0.0918 -0.0367,-0.0618 -0.0555,-0.1407 -0.0555,-0.2374 0,-0.0947 0.0307,-0.1795 0.0912,-0.2563 0.0614,-0.0768 0.1338,-0.1146 0.2181,-0.1146 0.1387,0 0.2081,0.1076 0.2081,0.3231 z m 2.629,-1.8066 c 0.1596,0 0.3549,-0.0407 0.5849,-0.1216 0.231,-0.0817 0.459,-0.1855 0.684,-0.3121 0.225,-0.1268 0.4104,-0.2554 0.5571,-0.3861 0.1467,-0.1307 0.2201,-0.2394 0.2201,-0.3282 0,-0.0828 -0.0337,-0.1507 -0.1001,-0.2035 -0.0665,-0.0528 -0.1706,-0.0788 -0.3113,-0.0788 -0.226,0 -0.4659,0.0319 -0.7197,0.0958 -0.2538,0.0638 -0.5591,0.1996 -0.915,0.4069 z m 0,1.9522 c 0.0318,0.0479 0.0476,0.0808 0.0476,0.1008 0,0.0627 -0.0189,0.1027 -0.0565,0.1196 -0.0386,0.017 -0.0931,0.0249 -0.1636,0.0249 -0.0526,0 -0.0942,-0.0119 -0.1229,-0.0368 -0.0288,-0.025 -0.0436,-0.057 -0.0436,-0.0958 0,-0.0459 0.0238,-0.0879 0.0714,-0.1257 v -2.6992 c -0.0635,0 -0.1042,-0.01 -0.122,-0.0319 -0.0179,-0.0209 -0.0258,-0.0549 -0.0258,-0.0997 0,-0.0528 0.0109,-0.0928 0.0338,-0.1177 0.0228,-0.0259 0.0604,-0.0518 0.114,-0.0789 v -0.354 c -0.0228,-0.012 -0.0348,-0.038 -0.0348,-0.0778 0,-0.0529 0.0218,-0.0918 0.0645,-0.1177 0.0426,-0.026 0.0823,-0.0389 0.119,-0.0389 0.1189,0 0.1784,0.0518 0.1784,0.1566 0,0.0189 -0.01,0.0518 -0.0297,0.0997 -0.0198,0.0479 -0.0298,0.1078 -0.0298,0.1816 0.5939,-0.3072 1.1054,-0.461 1.5355,-0.461 0.2598,0 0.4551,0.041 0.587,0.1228 0.1318,0.0818 0.1972,0.2205 0.1972,0.4159 0,0.1996 -0.1408,0.411 -0.4223,0.6324 -0.2805,0.2225 -0.6097,0.41 -0.9854,0.5617 -0.3757,0.1525 -0.68,0.2313 -0.912,0.2363 z m 4.4253,0.0229 c 0.0228,0.0359 0.0346,0.0709 0.0346,0.1027 0,0.0798 -0.0733,0.1197 -0.219,0.1197 -0.1002,0 -0.1496,-0.0359 -0.1496,-0.1077 0,-0.0188 0.008,-0.0379 0.0237,-0.0568 0.0159,-0.0189 0.0257,-0.034 0.0297,-0.046 v -0.2024 c -0.1021,0.0978 -0.2647,0.2035 -0.4897,0.3152 -0.2241,0.1127 -0.4361,0.1685 -0.6344,0.1685 -0.1319,0 -0.2559,-0.0547 -0.3717,-0.1635 -0.117,-0.1087 -0.1756,-0.2224 -0.1756,-0.3391 v -2.012 c 0,-0.0119 -0.004,-0.0249 -0.0118,-0.0408 -0.008,-0.015 -0.0109,-0.0299 -0.0109,-0.042 0,-0.0917 0.0635,-0.1377 0.1902,-0.1377 0.0348,0 0.0685,0.01 0.1002,0.03 0.0318,0.0199 0.0476,0.0519 0.0476,0.0958 0,0.0478 -0.0119,0.0798 -0.0346,0.0947 v 1.988 c 0,0.0628 0.0366,0.1207 0.1109,0.1755 0.0744,0.055 0.1497,0.0818 0.2271,0.0818 0.1576,-0.006 0.3321,-0.0598 0.5214,-0.1606 0.1893,-0.1016 0.3668,-0.2274 0.5313,-0.3769 v -1.7068 c 0,-0.008 -0.003,-0.024 -0.009,-0.0488 -0.006,-0.024 -0.009,-0.0399 -0.009,-0.0469 0,-0.045 0.01,-0.0749 0.0286,-0.0878 0.0189,-0.013 0.0516,-0.02 0.0972,-0.02 0.0654,0 0.111,0.016 0.1358,0.0489 0.0248,0.033 0.0367,0.0838 0.0367,0.1546 z m 1.1956,-1.4304 v 1.4304 c 0.1913,-0.0558 0.4312,-0.2035 0.7196,-0.4428 0.1834,-0.1687 0.3391,-0.3422 0.469,-0.5228 0.1298,-0.1805 0.228,-0.356 0.2944,-0.5286 0.0663,-0.1726 0.099,-0.3322 0.099,-0.4809 0,-0.0467 -0.0227,-0.0876 -0.0693,-0.1246 -0.0457,-0.0369 -0.1121,-0.0549 -0.1993,-0.0549 -0.0991,0 -0.2329,0.027 -0.3995,0.0808 -0.1656,0.0539 -0.335,0.1367 -0.5056,0.2464 -0.1705,0.1097 -0.3063,0.2424 -0.4083,0.397 z m 0.0118,-0.382 c 0.1388,-0.1875 0.341,-0.3361 0.6047,-0.4459 0.2636,-0.1108 0.5086,-0.1656 0.7336,-0.1656 0.1714,0 0.2974,0.038 0.3787,0.1138 0.0803,0.0748 0.1209,0.1995 0.1209,0.371 0,0.2125 -0.0624,0.4469 -0.1883,0.7023 -0.126,0.2543 -0.2914,0.4986 -0.4967,0.7301 -0.2052,0.2324 -0.4233,0.4189 -0.6523,0.5616 -0.23,0.1426 -0.4421,0.2144 -0.6374,0.2144 -0.0961,0 -0.1576,-0.009 -0.1854,-0.0279 -0.0278,-0.018 -0.0416,-0.0528 -0.0416,-0.1037 0,-0.0558 0.0238,-0.0887 0.0713,-0.1008 v -3.532 c -0.0306,-0.049 -0.0466,-0.0928 -0.0466,-0.1317 0,-0.037 0.0209,-0.0669 0.0626,-0.0908 0.0416,-0.023 0.0902,-0.0349 0.1457,-0.0349 0.0515,0 0.0921,0.013 0.1218,0.0399 0.0299,0.0259 0.0447,0.0548 0.0447,0.0858 0,0.0399 -0.0159,0.0757 -0.0475,0.1077 v 1.6947 z m 2.7291,1.7765 c 0.0476,0.0319 0.0713,0.0698 0.0713,0.1138 -0.007,0.0378 -0.0267,0.0717 -0.0604,0.1007 -0.0336,0.0289 -0.0734,0.0438 -0.1189,0.0438 -0.0555,0 -0.1021,-0.0159 -0.1398,-0.0488 -0.0377,-0.033 -0.0555,-0.0749 -0.0555,-0.1246 0,-0.024 0.007,-0.0519 0.0227,-0.0849 v -3.3814 c -0.0227,-0.0409 -0.0346,-0.0869 -0.0346,-0.1377 0,-0.0827 0.0128,-0.1347 0.0386,-0.1546 0.0268,-0.021 0.0813,-0.031 0.1636,-0.031 0.0426,0 0.0833,0.0111 0.1239,0.034 0.0407,0.0229 0.0604,0.0579 0.0604,0.1037 0,0.0789 -0.0237,0.1447 -0.0713,0.1965 z m 1.1837,-0.0359 c 0.0397,0.0549 0.0595,0.0948 0.0595,0.1208 0,0.0478 -0.0238,0.0897 -0.0724,0.1226 -0.0485,0.0338 -0.1021,0.0508 -0.1596,0.0508 -0.0526,0 -0.0942,-0.0179 -0.123,-0.0528 -0.0297,-0.0349 -0.0445,-0.0788 -0.0445,-0.1327 0,-0.0278 0.0197,-0.0678 0.0594,-0.1197 v -2.0478 c -0.0228,-0.024 -0.0346,-0.0499 -0.0346,-0.0779 0,-0.0797 0.0138,-0.1386 0.0425,-0.1765 0.0289,-0.0378 0.0833,-0.0569 0.1646,-0.0569 0.0397,0 0.0743,0.021 0.107,0.0639 0.0329,0.042 0.0487,0.0829 0.0487,0.1217 0,0.024 -0.0158,0.0658 -0.0476,0.1257 z m -0.1368,-2.758 c -0.0536,0 -0.0962,-0.0169 -0.1288,-0.0489 -0.0338,-0.0319 -0.0496,-0.0739 -0.0496,-0.1257 0,-0.1915 0.0207,-0.3212 0.0634,-0.389 0.0417,-0.0678 0.102,-0.1017 0.1804,-0.1017 0.119,0 0.1784,0.0658 0.1784,0.1975 0,0.1486 -0.0227,0.2642 -0.0684,0.345 -0.0465,0.0819 -0.1051,0.1228 -0.1754,0.1228 z m 3.0741,2.0817 c 0,0.0299 -0.0348,0.1027 -0.1061,0.2185 -0.0704,0.1157 -0.1665,0.2364 -0.2895,0.362 -0.1229,0.1258 -0.2726,0.2344 -0.45,0.3252 -0.1785,0.0908 -0.3718,0.1356 -0.582,0.1356 -0.2419,0 -0.4401,-0.0847 -0.5947,-0.2542 -0.1547,-0.1697 -0.232,-0.3742 -0.232,-0.6135 0,-0.2214 0.0327,-0.4458 0.0991,-0.6703 0.0655,-0.2255 0.1637,-0.4309 0.2934,-0.6175 0.1299,-0.1875 0.2896,-0.3371 0.4789,-0.4478 0.1903,-0.1118 0.4035,-0.1677 0.6394,-0.1677 0.1656,0 0.3192,0.04 0.4609,0.1198 0.1408,0.0797 0.2122,0.1835 0.2122,0.3102 0,0.0479 -0.0218,0.0848 -0.0635,0.1117 -0.0426,0.0259 -0.0951,0.0389 -0.1575,0.0389 -0.0348,0 -0.0754,-0.0329 -0.1211,-0.0998 -0.0464,-0.0668 -0.0902,-0.1186 -0.1318,-0.1555 -0.0417,-0.0369 -0.108,-0.056 -0.1983,-0.056 -0.2498,0 -0.4688,0.076 -0.6552,0.2285 -0.1873,0.1517 -0.3301,0.3461 -0.4282,0.5835 -0.0981,0.2374 -0.1477,0.4799 -0.1477,0.7262 0,0.2125 0.0536,0.3811 0.1596,0.5067 0.106,0.1248 0.2735,0.1875 0.5006,0.1875 0.1685,0 0.3459,-0.0718 0.5324,-0.2153 0.1863,-0.1438 0.338,-0.3213 0.4549,-0.5328 0.004,-0.0209 0.009,-0.0458 0.015,-0.0748 0.005,-0.0289 0.0198,-0.0559 0.0425,-0.0807 0.0239,-0.024 0.0605,-0.036 0.1091,-0.036 0.0496,0 0.0883,0.015 0.1169,0.046 0.0288,0.0318 0.0427,0.0717 0.0427,0.1216 z m 2.5219,0.2464 c -0.213,0.2184 -0.4847,0.406 -0.8139,0.5616 -0.329,0.1556 -0.6304,0.2333 -0.905,0.2333 -0.128,0 -0.2301,-0.0299 -0.3064,-0.0887 -0.0763,-0.0589 -0.1139,-0.1387 -0.1139,-0.2414 0,-0.1466 0.0515,-0.3062 0.1556,-0.4767 0.1041,-0.1707 0.2517,-0.3313 0.4421,-0.4808 0.1903,-0.1497 0.4194,-0.2704 0.685,-0.3631 0.2666,-0.0929 0.5561,-0.1387 0.8684,-0.1387 v -0.4908 c 0,-0.0728 -0.0198,-0.1326 -0.0585,-0.1775 -0.0397,-0.0449 -0.0931,-0.0678 -0.1606,-0.0678 -0.1507,0 -0.3043,0.0219 -0.4599,0.0668 -0.1567,0.0449 -0.3004,0.1068 -0.4313,0.1865 -0.1318,0.0798 -0.2428,0.1706 -0.334,0.2744 0,0.0987 -0.0615,0.1485 -0.1844,0.1485 -0.0357,0 -0.0734,-0.0199 -0.113,-0.0598 -0.0397,-0.0399 -0.0596,-0.0738 -0.0596,-0.1027 0,-0.041 0.015,-0.0828 0.0447,-0.1258 0.0297,-0.0438 0.0724,-0.0647 0.1279,-0.0647 0.4133,-0.3951 0.8971,-0.5926 1.4503,-0.5926 0.1219,0 0.2289,0.045 0.3212,0.1358 0.0921,0.0897 0.1378,0.2083 0.1378,0.355 v 2.0109 c 0.0198,0.025 0.0287,0.0588 0.0287,0.1027 0,0.0339 -0.0208,0.063 -0.0635,0.0859 -0.0425,0.0229 -0.0911,0.0338 -0.1436,0.0338 -0.0992,0 -0.1487,-0.0359 -0.1487,-0.1077 0,-0.0199 0.0158,-0.0538 0.0465,-0.1028 v -0.5136 z m 0.0119,-0.7253 c -0.2459,0.009 -0.449,0.0331 -0.6086,0.072 -0.1607,0.0388 -0.2895,0.0837 -0.3857,0.1355 -0.0972,0.052 -0.2231,0.1298 -0.3787,0.2355 -0.1001,0.0618 -0.2091,0.1676 -0.3262,0.3172 -0.1179,0.1486 -0.1794,0.2723 -0.1853,0.3711 0,0.0798 0.0853,0.1196 0.2558,0.1196 0.1496,0 0.3569,-0.0617 0.6215,-0.1845 0.2637,-0.1237 0.4977,-0.2653 0.7019,-0.4269 0.2032,-0.1615 0.3053,-0.2962 0.3053,-0.4061 z m 1.5108,1.2389 v -2.1964 l -0.5343,0.0659 c -0.003,0 -0.0149,0.006 -0.0337,0.0179 -0.0199,0.0121 -0.0357,0.0189 -0.0496,0.0189 -0.0456,0 -0.0823,-0.0179 -0.109,-0.0528 -0.0269,-0.0338 -0.0397,-0.0707 -0.0397,-0.1098 0,-0.0438 0.0139,-0.0827 0.0436,-0.1175 0.0288,-0.034 0.0674,-0.051 0.117,-0.051 0.01,0 0.0178,0.003 0.0257,0.01 0.008,0.007 0.0149,0.0119 0.0218,0.015 l 0.5582,-0.0788 v -0.5736 c -0.0168,-0.008 -0.0247,-0.0398 -0.0247,-0.0958 0,-0.0598 0.0703,-0.0898 0.21,-0.0898 0.0874,0 0.1319,0.0219 0.1319,0.0649 0,0.0389 -0.0129,0.0709 -0.0366,0.0968 v 0.5506 l 0.9645,-0.1447 c 0.0307,-0.0149 0.0545,-0.0229 0.0704,-0.0229 0.0336,0 0.0625,0.015 0.0872,0.0439 0.0259,0.0289 0.0377,0.0618 0.0377,0.0997 0,0.1157 -0.0317,0.1736 -0.0952,0.1736 -0.0356,0 -0.0614,-0.004 -0.0773,-0.0119 l -0.9873,0.1436 v 2.0528 c 0,0.0747 0.0197,0.1227 0.0594,0.1426 0.1834,-0.0917 0.3162,-0.1606 0.3995,-0.2054 0.0833,-0.045 0.1705,-0.0978 0.2637,-0.1596 0.0921,-0.0609 0.1824,-0.1338 0.2707,-0.2175 0.0882,-0.0838 0.1675,-0.1786 0.2379,-0.2834 0,-0.1006 0.0416,-0.1506 0.1249,-0.1506 0.1111,0 0.1675,0.0659 0.1675,0.1977 0,0.0598 -0.0991,0.1834 -0.2964,0.3709 -0.1963,0.1865 -0.4144,0.3581 -0.6523,0.5147 -0.238,0.1557 -0.4302,0.2355 -0.5749,0.2394 -0.0883,0 -0.1577,-0.0168 -0.2072,-0.0499 -0.0486,-0.0329 -0.0734,-0.1016 -0.0734,-0.2075 z m 2.5586,-0.0837 c 0.0396,0.0549 0.0595,0.0948 0.0595,0.1208 0,0.0478 -0.0238,0.0897 -0.0724,0.1226 -0.0486,0.0338 -0.102,0.0508 -0.1595,0.0508 -0.0526,0 -0.0942,-0.0179 -0.123,-0.0528 -0.0298,-0.0349 -0.0447,-0.0788 -0.0447,-0.1327 0,-0.0278 0.0199,-0.0678 0.0596,-0.1197 v -2.0478 c -0.0229,-0.024 -0.0348,-0.0499 -0.0348,-0.0779 0,-0.0797 0.0139,-0.1386 0.0427,-0.1765 0.0287,-0.0378 0.0833,-0.0569 0.1645,-0.0569 0.0397,0 0.0744,0.021 0.1071,0.0639 0.0327,0.042 0.0485,0.0829 0.0485,0.1217 0,0.024 -0.0158,0.0658 -0.0475,0.1257 z m -0.1367,-2.758 c -0.0536,0 -0.0963,-0.0169 -0.129,-0.0489 -0.0336,-0.0319 -0.0496,-0.0739 -0.0496,-0.1257 0,-0.1915 0.0209,-0.3212 0.0634,-0.389 0.0417,-0.0678 0.1022,-0.1017 0.1805,-0.1017 0.1189,0 0.1785,0.0658 0.1785,0.1975 0,0.1486 -0.0229,0.2642 -0.0684,0.345 -0.0466,0.0819 -0.1051,0.1228 -0.1754,0.1228 z m 2.9134,1.4483 c 0,-0.2733 -0.0535,-0.4828 -0.1606,-0.6303 -0.106,-0.1468 -0.2547,-0.2205 -0.4461,-0.2205 -0.1934,0.005 -0.3837,0.0728 -0.57,0.2054 -0.1874,0.1318 -0.34,0.3143 -0.459,0.5466 -0.118,0.2334 -0.1774,0.4939 -0.1774,0.781 0,0.1837 0.0387,0.3503 0.1159,0.4998 0.0773,0.1486 0.2251,0.2234 0.4422,0.2234 0.223,0 0.4312,-0.0687 0.6245,-0.2064 0.1943,-0.1366 0.3479,-0.3142 0.461,-0.5327 0.113,-0.2175 0.1695,-0.4398 0.1695,-0.6663 z m -1.3264,1.6747 c -0.0931,0 -0.1993,-0.0308 -0.3192,-0.0917 -0.12,-0.0609 -0.2241,-0.1625 -0.3132,-0.3052 -0.0903,-0.1437 -0.1348,-0.3281 -0.1348,-0.5557 0,-0.2313 0.0357,-0.4588 0.107,-0.6802 0.0723,-0.2214 0.1755,-0.4189 0.3112,-0.5925 0.1358,-0.1726 0.2974,-0.3092 0.4848,-0.409 0.1874,-0.0987 0.3936,-0.1486 0.6196,-0.1486 0.1358,0 0.2677,0.034 0.3965,0.1008 0.1289,0.0667 0.237,0.1844 0.3242,0.3521 0.0873,0.1676 0.1309,0.3899 0.1309,0.6664 0,0.2154 -0.0427,0.4228 -0.1269,0.6223 -0.0844,0.2005 -0.2013,0.3791 -0.351,0.5366 -0.1507,0.1576 -0.3241,0.2804 -0.5205,0.37 -0.1962,0.0899 -0.3994,0.1347 -0.6086,0.1347 z m 4.231,-0.3042 c 0.0158,0.007 0.0228,0.033 0.0228,0.0768 0,0.0569 -0.012,0.0968 -0.0357,0.1207 -0.0248,0.024 -0.0704,0.0359 -0.1368,0.0359 -0.0992,0 -0.1488,-0.0478 -0.1488,-0.1445 0,-0.027 0.006,-0.0529 0.0179,-0.0779 v -2.0957 c 0,-0.0328 -0.0149,-0.0578 -0.0455,-0.0748 -0.0308,-0.017 -0.0606,-0.0259 -0.0912,-0.0259 -0.0626,0 -0.243,0.1146 -0.5404,0.342 -0.2973,0.2286 -0.5313,0.422 -0.7028,0.5807 v 1.2856 c 0.0159,0.017 0.0228,0.043 0.0228,0.0779 0,0.0888 -0.0615,0.1326 -0.1844,0.1326 -0.1101,0 -0.1656,-0.0359 -0.1656,-0.1077 0,-0.0438 0.0158,-0.0788 0.0466,-0.1028 v -1.1729 c -0.0376,-0.0259 -0.0614,-0.0628 -0.0713,-0.1127 0.0108,-0.0539 0.0347,-0.1158 0.0713,-0.1856 v -0.8328 c -0.0158,-0.032 -0.0227,-0.0719 -0.0227,-0.1198 0,-0.034 0.0188,-0.0648 0.0584,-0.0938 0.0397,-0.0289 0.0833,-0.0438 0.1318,-0.0438 0.1072,0 0.1607,0.0418 0.1607,0.1256 0,0.036 -0.0159,0.0758 -0.0476,0.1197 v 0.6644 c 0.2756,-0.2454 0.5402,-0.4579 0.7921,-0.6385 0.2528,-0.1805 0.4233,-0.2712 0.5115,-0.2712 0.0961,0 0.1804,0.0319 0.2507,0.0957 0.0705,0.0639 0.1062,0.1377 0.1062,0.2215 z m 0.8079,-0.1795 c 0,-0.1636 0.0575,-0.2453 0.1725,-0.2453 0.0317,0 0.0585,0.0109 0.0804,0.0318 0.0218,0.0219 0.0327,0.0509 0.0327,0.0868 0,0.0479 -0.006,0.0838 -0.0179,0.1088 0.1119,0.1306 0.2835,0.1965 0.5174,0.1965 0.118,0 0.2498,-0.028 0.3966,-0.0849 0.1468,-0.0568 0.2874,-0.1355 0.4222,-0.2384 0.1359,-0.1027 0.2459,-0.2243 0.3311,-0.3641 0.0863,-0.1405 0.129,-0.2902 0.129,-0.4488 0,-0.0649 -0.0258,-0.1247 -0.0764,-0.1775 -0.0506,-0.0539 -0.1229,-0.0808 -0.2151,-0.0808 -0.0803,0 -0.1735,0.0229 -0.2795,0.0688 -0.1071,0.0459 -0.2479,0.1147 -0.4224,0.2054 -0.1744,0.0909 -0.3192,0.1607 -0.4331,0.2076 -0.1151,0.0469 -0.2162,0.0697 -0.3044,0.0697 -0.1358,0 -0.233,-0.0498 -0.2924,-0.1485 -0.0585,-0.0988 -0.0884,-0.2085 -0.0884,-0.3292 0,-0.1995 0.0566,-0.376 0.1686,-0.5307 0.1121,-0.1536 0.2587,-0.2813 0.4402,-0.3811 0.1804,-0.0996 0.3738,-0.1735 0.5789,-0.2213 0.2043,-0.0479 0.4015,-0.0719 0.5919,-0.0719 0.097,0 0.1773,0.019 0.2388,0.0569 0.0625,0.0379 0.0933,0.0768 0.0933,0.1167 0,0.1037 -0.0496,0.1555 -0.1477,0.1555 -0.0437,0 -0.0784,-0.01 -0.1032,-0.0299 -0.0248,-0.0199 -0.0594,-0.0299 -0.1061,-0.0299 -0.2884,0 -0.5462,0.0419 -0.7732,0.1267 -0.227,0.0848 -0.4025,0.2005 -0.5273,0.3462 -0.1239,0.1456 -0.1865,0.3032 -0.1865,0.4728 0,0.1236 0.0417,0.1856 0.125,0.1856 0.0724,0 0.1577,-0.0211 0.2538,-0.0639 0.0962,-0.042 0.23,-0.1078 0.4024,-0.1965 0.1715,-0.0889 0.3202,-0.1576 0.4441,-0.2064 0.125,-0.048 0.2379,-0.0719 0.34,-0.0719 0.126,0 0.2509,0.0479 0.3737,0.1426 0.1241,0.0948 0.1854,0.2314 0.1854,0.408 0,0.2423 -0.0613,0.4538 -0.1833,0.6324 -0.1229,0.1785 -0.2726,0.3221 -0.4481,0.4309 -0.1755,0.1087 -0.3499,0.1885 -0.5234,0.2413 -0.1735,0.0519 -0.3083,0.0778 -0.4045,0.0778 -0.2032,0 -0.3846,-0.0479 -0.5452,-0.1426 -0.1596,-0.0948 -0.2399,-0.1964 -0.2399,-0.3052 z m 4.8416,0.1546 c 0.0475,0.0359 0.0714,0.0818 0.0714,0.1386 0,0.042 -0.0248,0.0719 -0.0743,0.0908 -0.0487,0.0191 -0.1002,0.0289 -0.1517,0.0289 -0.131,0 -0.1953,-0.0538 -0.1953,-0.1625 0,-0.0429 0.0267,-0.0788 0.0822,-0.1078 v -3.3694 c -0.0396,-0.0349 -0.0595,-0.0689 -0.0595,-0.1007 0,-0.1048 0.0892,-0.1568 0.2677,-0.1568 0.0991,0 0.1478,0.0441 0.1478,0.1318 0,0.0438 -0.0288,0.0977 -0.0883,0.1616 z m 2.9155,0.0249 c 0.0158,0.007 0.0228,0.033 0.0228,0.0768 0,0.0569 -0.012,0.0968 -0.0357,0.1207 -0.0248,0.024 -0.0705,0.0359 -0.1369,0.0359 -0.0991,0 -0.1487,-0.0478 -0.1487,-0.1445 0,-0.027 0.006,-0.0529 0.0179,-0.0779 v -2.0957 c 0,-0.0328 -0.0149,-0.0578 -0.0455,-0.0748 -0.0308,-0.017 -0.0606,-0.0259 -0.0913,-0.0259 -0.0625,0 -0.2429,0.1146 -0.5403,0.342 -0.2974,0.2286 -0.5313,0.422 -0.7029,0.5807 v 1.2856 c 0.016,0.017 0.0229,0.043 0.0229,0.0779 0,0.0888 -0.0614,0.1326 -0.1844,0.1326 -0.1101,0 -0.1656,-0.0359 -0.1656,-0.1077 0,-0.0438 0.0158,-0.0788 0.0466,-0.1028 v -1.1729 c -0.0376,-0.0259 -0.0614,-0.0628 -0.0714,-0.1127 0.0109,-0.0539 0.0348,-0.1158 0.0714,-0.1856 v -0.8328 c -0.0158,-0.032 -0.0228,-0.0719 -0.0228,-0.1198 0,-0.034 0.0189,-0.0648 0.0585,-0.0938 0.0397,-0.0289 0.0833,-0.0438 0.1318,-0.0438 0.1072,0 0.1607,0.0418 0.1607,0.1256 0,0.036 -0.0159,0.0758 -0.0477,0.1197 v 0.6644 c 0.2757,-0.2454 0.5403,-0.4579 0.7922,-0.6385 0.2528,-0.1805 0.4233,-0.2712 0.5115,-0.2712 0.0961,0 0.1804,0.0319 0.2507,0.0957 0.0705,0.0639 0.1062,0.1377 0.1062,0.2215 z m 2.7697,-0.9346 c -0.1397,0.1994 -0.3073,0.395 -0.5015,0.5855 -0.1944,0.1916 -0.3936,0.3482 -0.5989,0.4698 -0.2051,0.1228 -0.3895,0.1835 -0.5521,0.1835 -0.1111,0 -0.2062,-0.0288 -0.2835,-0.0857 -0.0784,-0.0569 -0.1359,-0.1277 -0.1735,-0.2115 -0.0367,-0.0838 -0.0555,-0.1685 -0.0555,-0.2534 0,-0.2253 0.0565,-0.4578 0.1705,-0.7002 0.114,-0.2414 0.2638,-0.4627 0.4491,-0.6653 0.1852,-0.2015 0.3856,-0.3641 0.5997,-0.4857 0.2141,-0.1227 0.4173,-0.1835 0.6077,-0.1835 0.1041,0 0.221,0.0278 0.3519,0.0847 v -1.2508 c -0.0396,-0.025 -0.0595,-0.0689 -0.0595,-0.1337 0,-0.0509 0.0169,-0.0888 0.0526,-0.1128 0.0357,-0.0239 0.0743,-0.0359 0.1179,-0.0359 0.0486,0 0.0883,0.017 0.1199,0.0499 0.0318,0.0329 0.0477,0.0748 0.0477,0.1237 0,0.0131 -0.002,0.0339 -0.006,0.0619 -0.004,0.0278 -0.006,0.0439 -0.006,0.0469 v 3.4223 c 0.0436,0.0378 0.0656,0.0798 0.0656,0.1257 0,0.0888 -0.0695,0.1326 -0.2073,0.1326 -0.1081,0 -0.1615,-0.0438 -0.1615,-0.1326 0,-0.0519 0.0118,-0.0858 0.0366,-0.1008 v -0.9346 z m -0.0227,-0.6474 c 0,-0.1585 -0.0239,-0.2703 -0.0724,-0.3341 -0.0487,-0.0639 -0.122,-0.0958 -0.2192,-0.0958 -0.1675,0 -0.344,0.0569 -0.5273,0.1717 -0.1844,0.1146 -0.3558,0.2633 -0.5145,0.4468 -0.1586,0.1835 -0.2865,0.376 -0.3836,0.5786 -0.0963,0.2035 -0.1448,0.3849 -0.1448,0.5455 0,0.1087 0.0248,0.1866 0.0743,0.2334 0.0496,0.0469 0.1062,0.0708 0.1696,0.0708 0.2141,0 0.462,-0.1296 0.7435,-0.389 0.2439,-0.2264 0.4282,-0.411 0.5522,-0.5536 0.1239,-0.1436 0.2081,-0.2653 0.2538,-0.367 0.0455,-0.1008 0.0684,-0.2035 0.0684,-0.3073 z m 1.4978,1.5212 c 0.0397,0.0549 0.0595,0.0948 0.0595,0.1208 0,0.0478 -0.0238,0.0897 -0.0724,0.1226 -0.0485,0.0338 -0.1021,0.0508 -0.1596,0.0508 -0.0525,0 -0.0942,-0.0179 -0.123,-0.0528 -0.0297,-0.0349 -0.0445,-0.0788 -0.0445,-0.1327 0,-0.0278 0.0197,-0.0678 0.0594,-0.1197 v -2.0478 c -0.0228,-0.024 -0.0346,-0.0499 -0.0346,-0.0779 0,-0.0797 0.0139,-0.1386 0.0425,-0.1765 0.0289,-0.0378 0.0834,-0.0569 0.1646,-0.0569 0.0397,0 0.0745,0.021 0.107,0.0639 0.0329,0.042 0.0487,0.0829 0.0487,0.1217 0,0.024 -0.0158,0.0658 -0.0476,0.1257 z m -0.1368,-2.758 c -0.0536,0 -0.0962,-0.0169 -0.1288,-0.0489 -0.0338,-0.0319 -0.0496,-0.0739 -0.0496,-0.1257 0,-0.1915 0.0207,-0.3212 0.0634,-0.389 0.0417,-0.0678 0.1022,-0.1017 0.1804,-0.1017 0.119,0 0.1784,0.0658 0.1784,0.1975 0,0.1486 -0.0227,0.2642 -0.0684,0.345 -0.0465,0.0819 -0.1051,0.1228 -0.1754,0.1228 z"
           style="fill:#009035;fill-rule:evenodd;stroke:#009035;stroke-width:0.216;stroke-linecap:butt;stroke-linejoin:miter;stroke-dasharray:none"
           id="path4" />
        <path
           d="m 262.7354,221.3992 c -0.2131,0.2184 -0.4847,0.406 -0.8139,0.5616 -0.3291,0.1556 -0.6304,0.2333 -0.9051,0.2333 -0.1278,0 -0.2299,-0.0299 -0.3062,-0.0887 -0.0763,-0.0589 -0.1141,-0.1387 -0.1141,-0.2414 0,-0.1466 0.0515,-0.3062 0.1557,-0.4767 0.1041,-0.1707 0.2518,-0.3313 0.4421,-0.4808 0.1904,-0.1497 0.4194,-0.2704 0.685,-0.3631 0.2667,-0.0929 0.5562,-0.1387 0.8684,-0.1387 v -0.4908 c 0,-0.0728 -0.0199,-0.1326 -0.0584,-0.1775 -0.0397,-0.0449 -0.0933,-0.0678 -0.1607,-0.0678 -0.1506,0 -0.3043,0.0219 -0.46,0.0668 -0.1566,0.0449 -0.3004,0.1068 -0.4312,0.1865 -0.1318,0.0798 -0.2429,0.1706 -0.3341,0.2744 0,0.0987 -0.0614,0.1485 -0.1844,0.1485 -0.0357,0 -0.0733,-0.0199 -0.113,-0.0598 -0.0396,-0.0399 -0.0594,-0.0738 -0.0594,-0.1027 0,-0.041 0.0149,-0.0828 0.0446,-0.1258 0.0297,-0.0438 0.0723,-0.0647 0.1278,-0.0647 0.4134,-0.3951 0.8972,-0.5926 1.4504,-0.5926 0.1219,0 0.2289,0.045 0.3211,0.1358 0.0923,0.0897 0.1378,0.2083 0.1378,0.355 v 2.0109 c 0.0198,0.025 0.0288,0.0588 0.0288,0.1027 0,0.0339 -0.0209,0.063 -0.0635,0.0859 -0.0425,0.0229 -0.0912,0.0338 -0.1437,0.0338 -0.0991,0 -0.1487,-0.0359 -0.1487,-0.1077 0,-0.0199 0.0158,-0.0538 0.0466,-0.1028 v -0.5136 z m 0.0119,-0.7253 c -0.2458,0.009 -0.449,0.0331 -0.6086,0.072 -0.1607,0.0388 -0.2895,0.0837 -0.3857,0.1355 -0.0971,0.052 -0.223,0.1298 -0.3787,0.2355 -0.1001,0.0618 -0.2092,0.1676 -0.3261,0.3172 -0.118,0.1486 -0.1795,0.2723 -0.1854,0.3711 0,0.0798 0.0853,0.1196 0.2557,0.1196 0.1498,0 0.357,-0.0617 0.6216,-0.1845 0.2638,-0.1237 0.4976,-0.2653 0.7018,-0.4269 0.2034,-0.1615 0.3054,-0.2962 0.3054,-0.4061 z"
           style="fill:#009035;fill-rule:evenodd;stroke:#009035;stroke-width:0.216;stroke-linecap:butt;stroke-linejoin:miter;stroke-dasharray:none"
           id="path6" />
      </g>
      <path
         d="m 225.395,213.1092 5.198,-5.866 5.2562,5.8854 z"
         style="fill:#e30079;fill-rule:evenodd"
         id="path9" />
      <path
         d="m 213.0157,212.4496 c 0,0.5872 -0.4733,1.0634 -1.0568,1.0634 -0.5835,0 -1.0568,-0.4762 -1.0568,-1.0634 v -12.7463 c 0,-0.8806 0.2105,-1.6384 0.576,-2.2735 1.5347,-2.6677 5.3249,-3.0857 7.7053,-1.2816 0.5038,0.2934 0.6757,0.9425 0.3839,1.4494 -0.2918,0.5068 -0.9369,0.68 -1.4407,0.3865 -1.4831,-1.4629 -5.1109,-0.9322 -5.1109,1.7192 z"
         style="fill:#cb6c36;fill-rule:evenodd"
         id="path11" />
      <path
         d="m 248.6997,194.477 h 8e-4 c 2.4711,3e-4 4.7142,1.0141 6.3387,2.6489 1.6242,1.6344 2.6314,3.8908 2.6319,6.3765 v 0.002 8e-4 c -2e-4,2.4865 -1.0078,4.7435 -2.6324,6.3781 -1.6244,1.6343 -3.8669,2.6478 -6.3372,2.6483 h -0.002 -9e-4 c -2.471,-3e-4 -4.7141,-1.0142 -6.3386,-2.6488 -0.1806,-0.1817 -0.3534,-0.3715 -0.5181,-0.5681 v 6.6746 c 0,0.5871 -0.4733,1.0634 -1.0568,1.0634 -0.5835,0 -1.0568,-0.4763 -1.0568,-1.0634 V 203.532 c 0,-0.009 -3e-4,-0.0171 -3e-4,-0.0258 v -0.002 -8e-4 c 0,-0.009 3e-4,-0.0173 3e-4,-0.026 v -0.5156 c 0,-0.0962 0.013,-0.1898 0.0369,-0.2784 0.1948,-2.1605 1.1512,-4.105 2.5954,-5.5581 1.6242,-1.6343 3.8668,-2.6478 6.3371,-2.6483 z m -6.8576,9.0009 v 0.0534 c 0.007,1.8885 0.7758,3.6032 2.0125,4.8476 1.2424,1.2501 2.9567,2.0256 4.8442,2.0257 h 9e-4 0.002 c 1.8868,-3e-4 3.6005,-0.7753 4.8428,-2.0252 1.2424,-1.25 2.0131,-2.975 2.0132,-4.8744 v -8e-4 -0.002 c -4e-4,-1.8985 -0.7707,-3.623 -2.0127,-4.8728 -1.2424,-1.2504 -2.9568,-2.0257 -4.8443,-2.0258 h -8e-4 -0.002 c -1.8868,3e-4 -3.6007,0.7754 -4.8427,2.0252 -1.2371,1.2446 -2.0061,2.9597 -2.0131,4.8489 z"
         style="fill:#009ee0;fill-rule:evenodd"
         id="path13" />
      <path
         d="m 222.4147,190.8141 c 0,-0.5871 0.4732,-1.0634 1.0568,-1.0634 0.5835,0 1.0568,0.4763 1.0568,1.0634 v 18.4188 c 4.2219,-4.7115 8.3957,-9.3689 12.6262,-14.09 0.3902,-0.4353 1.0578,-0.4703 1.4908,-0.0781 0.433,0.3922 0.468,1.0632 0.0779,1.4986 l -6.6344,7.4034 6.4572,7.4255 c 0.3829,0.4404 0.3385,1.1099 -0.0992,1.4952 -0.4377,0.3853 -1.1031,0.3408 -1.486,-0.0996 l -6.2924,-7.2359 -6.4126,7.1559 c -0.6166,0.688 -1.8411,0.2148 -1.8411,-0.7103 z"
         style="fill:#a49eca;fill-rule:evenodd"
         id="path15" />
      <g
         id="Layer1003">
        <defs
           id="defs22">
          <radialGradient
             id="grad1"
             cx="0.40000001"
             cy="0.40000001"
             r="1">
            <stop
               offset="0%"
               stop-color="#ffffff"
               stop-opacity="1.0000"
               id="stop17" />
            <stop
               offset="100%"
               stop-color="#ffcb00"
               stop-opacity="1.0000"
               id="stop19" />
          </radialGradient>
        </defs>
        <path
           d="m 216.6042,198.9145 a 2.598,2.6142 0 0 1 2.598,2.6142 2.598,2.6142 0 1 1 -2.598,-2.6142 z"
           style="fill:url(#grad1)"
           id="path24" />
        <path
           d="m 218.4226,201.3258 c -0.2912,1.0135 -0.8978,1.7886 -1.9658,2.2161 -0.1758,-0.3724 -0.3518,-0.7448 -0.5278,-1.1172 0.9602,0.2304 1.7763,-0.2061 2.4936,-1.0989 z"
           style="fill:#ffffff;fill-rule:evenodd"
           id="path26" />
      </g>
      <path
         d="m 248.8073,207.3165 c 0.4611,0.294 0.9243,0.4451 1.3975,-0.0923 1.3393,-0.1784 2.6428,-0.4624 3.9423,-0.7584 0.0973,-2.0635 0.1946,-4.1269 0.292,-6.1904 -0.0974,-0.0273 -0.1947,-0.0546 -0.292,-0.082 -0.3825,0.0873 -0.7718,0.1127 -1.1472,0 -1.5869,-0.4763 -2.9825,-0.4557 -4.13,0.3895 -1.5016,-1.1045 -3.1008,-0.6244 -4.714,0.082 -0.3368,-0.0884 -0.666,-0.0412 -0.9908,0.082 0.7127,2.2069 1.4253,4.4139 2.138,6.6208 1.1681,-0.0379 2.3361,-0.0683 3.5042,-0.0512 z"
         style="fill:#ffec00;fill-rule:evenodd"
         id="path29" />
      <path
         d="m 261.6638,212.4496 c 0,0.5872 -0.4733,1.0634 -1.0568,1.0634 -0.5835,0 -1.0568,-0.4762 -1.0568,-1.0634 v -11.3284 c 0.3307,0.1325 0.6905,0.2053 1.0672,0.2053 0.3687,0 0.7215,-0.0697 1.0464,-0.197 z"
         style="fill:#c94b93;fill-rule:evenodd"
         id="path31" />
      <path
         d="m 260.2069,197.4859 c -1.0855,0.7451 -1.4111,1.7642 -0.7376,2.6984 0.549,0.7616 1.6168,0.6621 2.4049,0.041 0.5494,-0.4329 0.9627,-1.1088 0.856,-1.75 -0.1206,-0.7247 -0.717,-0.7211 -1.25,-0.6562 -0.5144,0.0626 -1.0106,0.4917 -0.9023,0.9568 0.0361,0.1551 0.1395,0.3143 0.3316,0.4651 0.1005,0.0788 0.2075,-0.0522 0.1631,-0.1778 -0.0662,-0.1876 -0.2843,-0.2641 -0.1632,-0.5142 0.0603,-0.1247 0.2138,-0.1861 0.4213,-0.1967 0.6662,-0.0341 0.8991,0.3413 0.7881,0.9433 -0.1464,0.7936 -0.9866,1.0742 -1.5956,0.7806 -0.6513,-0.3141 -0.8526,-1.3262 -0.4425,-1.9153 0.3828,-0.55 0.893,-1.0135 1.6577,-1.1074 0.6654,-0.0817 1.3097,0.1743 1.6576,1.0937 0.2887,0.7629 0.2117,1.5117 -0.3533,2.1191 -0.6885,0.7404 -1.5575,1.1504 -2.5951,1.1758 -0.776,-0.0473 -1.576,-0.2275 -2.0245,-1.1894 -0.2347,-0.5034 -0.3455,-1.1222 -0.1826,-1.7569 0.2306,-0.8994 0.9034,-1.464 1.6767,-1.9131 0.6004,-0.3487 0.7342,0.5979 0.2897,0.9032 z m 3.2103,5.7755 c -0.22,0.0891 -0.3612,-0.1028 -0.4661,-0.2503 -0.2677,-0.376 -0.4509,-0.75 -0.5722,-1.1226 -0.0547,-0.1678 -0.1254,-0.4044 0.0766,-0.5088 0,0 0,0 0,0 0.2014,-0.1043 0.3445,0.0819 0.446,0.2247 0.2407,0.3383 0.9039,1.143 0.5981,1.426 -0.0655,0.0606 -0.0516,0.2185 -0.0824,0.231 z m -4.5406,-0.8347 c 0.2294,-0.5163 0.5689,-0.8687 0.7559,-0.7845 0.1868,0.0839 0.1525,0.5736 -0.077,1.0897 -0.2293,0.5163 -0.5689,0.8687 -0.7558,0.7845 -0.1869,-0.0839 -0.1525,-0.5736 0.0769,-1.0897 z m 2.2946,1.4777 c 0.4381,-0.5428 0.5385,-1.353 0.1479,-1.9086 -0.1769,-0.2517 -0.3583,-0.1815 -0.4039,0.0518 -0.1099,0.5632 -0.133,1.1571 0.0375,1.7719 0.0465,0.1678 0.1474,0.173 0.2185,0.0849 z m -3.776,-3.1081 c 0.3738,-0.2647 0.757,-0.3687 0.8527,-0.2318 0.0959,0.1371 -0.1309,0.4648 -0.5045,0.7296 -0.3739,0.2647 -0.757,0.3687 -0.8527,0.2319 -0.096,-0.1372 0.1308,-0.4648 0.5045,-0.7297 z m -0.3753,-2.3321 c 0.5619,0 1.0203,0.168 1.0203,0.3741 0,0.206 -0.4584,0.3741 -1.0203,0.3741 -0.5619,0 -1.0203,-0.1681 -1.0203,-0.3741 0,-0.2061 0.4584,-0.3741 1.0203,-0.3741 z m -0.3702,-2.1862 c 0.6703,0.0983 1.3498,0.4134 1.6393,0.9182 0.1605,0.2797 -0.0566,0.4032 -0.2793,0.2985 -0.5377,-0.2527 -0.9987,-0.4733 -1.4162,-0.9865 -0.1139,-0.1401 -0.0594,-0.2257 0.0562,-0.2302 z m 8.7227,5.0695 c 0,0 0,0 0,0 -0.1254,0.1896 -0.3485,0.0831 -0.5041,0.009 -0.3967,-0.1883 -0.9088,-0.4769 -1.1819,-0.7307 -0.123,-0.1144 -0.2914,-0.2785 -0.1712,-0.4601 0,0 0,0 0,0 0.1197,-0.181 0.325,-0.0927 0.4756,-0.0212 0.3777,0.1794 1.6478,0.8003 1.3816,1.2028 z m 0.6236,-2.7514 c -0.4843,0.526 -1.2964,0.7615 -1.927,0.4666 -0.2858,-0.1335 -0.2432,-0.3255 -0.0121,-0.4099 0.558,-0.2033 1.1614,-0.3259 1.8172,-0.2597 0.179,0.0182 0.2005,0.1176 0.1219,0.203 z m -1.2456,-2.4348 c 0.0974,0.1907 -0.0615,0.3336 -0.184,0.4402 -0.3121,0.272 -0.6295,0.4678 -0.9507,0.6078 -0.1446,0.063 -0.349,0.1463 -0.4587,-0.0269 0,0 0,0 0,0 -0.1092,-0.1727 0.0445,-0.3169 0.163,-0.4201 0.2808,-0.2445 0.9414,-0.9079 1.2182,-0.6561 0.0594,0.054 0.1985,0.0284 0.2122,0.0551 z m -3.0057,-1.8028 c 0,0 0,0 0,0 0.2214,0.0476 0.2052,0.2954 0.1941,0.4682 -0.028,0.4405 -0.1172,0.8283 -0.2513,1.1773 -0.0603,0.1572 -0.15,0.3749 -0.3621,0.3294 0,0 0,0 0,0 -0.2113,-0.0455 -0.2054,-0.27 -0.1946,-0.4373 0.0267,-0.4193 0.1441,-1.6386 0.6139,-1.5376 z m -3.3336,0.2235 c -0.1989,0.6522 0.0355,1.4123 0.637,1.7561 0.2726,0.1558 0.4181,0.0233 0.3665,-0.202 -0.1244,-0.5437 -0.3446,-1.0813 -0.7591,-1.5628 -0.1132,-0.1314 -0.2121,-0.0971 -0.2444,0.009 z"
         style="fill:#ffcb15;fill-rule:evenodd"
         id="path33" />
    </g>
  </g>
</svg>
